<?xml version="1.0" encoding="utf-8"?>
<!-- Generator: Adobe Illustrator 16.0.0, SVG Export Plug-In . SVG Version: 6.00 Build 0)  -->
<!DOCTYPE svg PUBLIC "-//W3C//DTD SVG 1.1//EN" "http://www.w3.org/Graphics/SVG/1.1/DTD/svg11.dtd">
<svg version="1.1" id="Camada_1" xmlns="http://www.w3.org/2000/svg" xmlns:xlink="http://www.w3.org/1999/xlink" x="0px" y="0px"
	 width="305px" height="130px" viewBox="0 0 305 130" enable-background="new 0 0 305 130" xml:space="preserve">
<path fill-rule="evenodd" clip-rule="evenodd" fill="#A8AEA4" d="M59.224,103.561c-10.266-5.543-18.155-8.33-23.755-19.665
	c-5.938-12.087,0.34-22.796,8.314-31.282c6.193-6.607,16.968-13.59,25.706-17.786c5.09-2.411,9.671-4.666,14.846-6.889
	c4.497-1.941,11.793-4.04,15.525-6.075c-8.06,0.751-29.354,8.83-37.243,12.4C51.758,39.086,40.475,45.13,32.16,53.052
	c-9.417,8.924-15.186,22.169-5.26,33.755C32.754,93.634,50.23,102.621,59.224,103.561z"/>
<path fill-rule="evenodd" clip-rule="evenodd" fill="#A8AEA4" d="M240.012,85.743l-0.085,4.571
	c6.023-1.472,20.191-9.613,25.451-13.496c40.892-30.374,10.774-54.203-17.477-57.835c6.617,4.133,15.102,6.137,20.87,12.494
	c6.278,6.951,9.756,13.715,5.6,23.422C269.535,66.234,251.805,81.109,240.012,85.743z"/>
<path fill-rule="evenodd" clip-rule="evenodd" fill="#004E6E" d="M240.605,79.668c0-4.195,3.394-5.73,7.127-6.324
	C246.799,76.631,244.169,79.48,240.605,79.668L240.605,79.668z M240.267,73.218c-0.255-5.479-0.085-10.083,6.702-9.144
	c2.036,1.879,2.036,2.411,1.696,5.229C247.563,70.682,241.878,73.093,240.267,73.218L240.267,73.218z M236.703,85.743
	c0.849,1.628,0.594,3.851,0.509,5.98c0.34,3.883-1.527,5.354-0.679,8.549l1.357,1.033l1.866-0.939
	c1.188-3.132,0.51-6.732,0.17-10.052l0.085-4.571l0.425-2.411c4.92-4.635,7.805-1.033,10.435-9.488
	c1.697-5.292,9.841-4.008,11.453-7.953c-3.394-1.409-6.108,1.973-9.332,1.91c-1.527-1.848-1.188-4.133-3.648-5.449
	c-2.545-1.409-5.345-0.438-7.975-0.72c-3.732-5.887-4.666,0.031-6.193,4.76c6.023,7.046-1.018,12.368-1.103,13.778
	C235.006,82.987,236.194,82.174,236.703,85.743z"/>
<path fill-rule="evenodd" clip-rule="evenodd" fill="#004E6E" d="M82.809,71.057c-5.43,1.097-11.453,5.136-17.477,6.545
	c-8.314,1.973-12.811-3.068-12.217-11.085c0.594-7.953,4.496-10.146,9.332-14.686c3.055-2.88,10.436-9.174,14.847-8.517l1.357,3.163
	c6.023,0.219,5.005-7.108-1.018-6.795c-2.8,0.125-8.484,3.82-11.199,5.323c-7.381,4.102-12.641,8.768-15.694,16.878
	c-1.527,3.946-2.8,8.862-0.085,12.557c2.036,2.724,6.362,5.949,10.011,6.544C65.502,81.829,81.705,76.004,82.809,71.057z"/>
<path fill-rule="evenodd" clip-rule="evenodd" fill="#004E6E" d="M88.492,57.499c-0.848-2.098,0.255-5.762,1.188-8.11
	c1.273-3.1,1.951-4.697,5.26-4.885C95.619,48.23,91.292,55.213,88.492,57.499L88.492,57.499z M95.788,80.576
	c1.104-2.567-1.018-2.693-2.884-4.258c-1.442-1.159-2.715-2.662-3.648-4.385c-4.581-8.454,1.104-11.961,1.442-12.4
	c2.036-2.599,15.017-20.259,4.666-19.758c-10.689,0.501-13.998,25.865-9.247,35.885C87.56,78.822,92.226,82.549,95.788,80.576z"/>
<path fill-rule="evenodd" clip-rule="evenodd" fill="#004E6E" d="M186.141,74.627c-1.019-3.225,5.684-10.772,8.907-11.743
	C194.454,66.109,189.449,75.504,186.141,74.627L186.141,74.627z M197.763,76.224c-3.563-6.013,3.224-13.715,2.291-16.063
	c-1.866-0.908-6.363-0.72-8.314,0.188c-3.394,1.472-11.623,15.062-7.975,17.754c3.987,2.85,8.399-4.54,9.077-5.167
	c0.595-0.563,0.425-0.344,1.019-0.72c0.17,3.006-0.255,6.044,1.951,8.204c3.732,0.438,6.362-4.572,7.806-7.609
	c1.865-4.07,5.769-5.197,5.599-9.77C204.55,64.105,201.411,74.533,197.763,76.224z"/>
<path fill-rule="evenodd" clip-rule="evenodd" fill="#004E6E" d="M214.73,62.039c-5.091-1.44-4.157,4.791-4.072,7.828
	c0.085,2.881-1.951,7.766,2.121,8.393c3.732,0.563,7.126-10.929,10.011-13.966c1.103,4.541,0.763,12.838,2.969,16.376
	c4.581,0.188,7.636-5.354,6.108-7.076c-1.781,1.221-1.866,2.474-4.072,2.881c-1.103-4.07,1.019-13.371-1.526-16.22
	c-5.345-3.727-7.975,10.145-11.708,11.304C213.797,67.018,215.664,65.734,214.73,62.039z"/>
<path fill-rule="evenodd" clip-rule="evenodd" fill="#004E6E" d="M120.222,62.133c-4.751-1.753-4.327,4.07-4.157,7.17
	c0.17,3.007-1.866,8.08,1.781,8.895c3.903,0.845,7.551-10.866,10.096-13.685c2.461,4.353,0.17,11.491,3.14,16.001
	c2.545,1.754,8.144-4.29,6.192-7.045l-4.071,3.1c-1.273-4.635,0.594-12.807-1.273-16.408c-5.26-2.442-8.992,8.486-11.707,11.742
	C118.694,67.3,120.985,66.297,120.222,62.133z"/>
<path fill-rule="evenodd" clip-rule="evenodd" fill="#004E6E" d="M170.275,64.105c1.357-1.377,1.612-1.691,1.442-3.664
	c-8.145-4.102-23.075,16.534-14.592,19.728c6.956,2.661,14.931-5.042,20.021-9.771c2.375-2.16,4.157-2.098,4.242-5.699
	c-5.515,1.127-14.508,14.749-21.719,12.901c-4.581-4.635,2.97-12.4,7.211-14.216L170.275,64.105z"/>
<path fill-rule="evenodd" clip-rule="evenodd" fill="#004E6E" d="M142.958,76.693c-0.849-4.446,1.018-11.93,0.085-14.498
	c-2.206-0.533-2.46-0.501-3.987,1.002c-0.679,3.382-0.34,14.216,1.272,17.16c4.326,1.848,5.26-1.378,7.89-4.541
	c2.036-2.441,4.921-4.885,5.854-8.172C149.66,67.3,146.945,76.725,142.958,76.693z"/>
<path fill-rule="evenodd" clip-rule="evenodd" fill="#004E6E" d="M103.933,76.693c-2.29-6.451,4.412-17.598-3.817-14.122
	c-0.934,3.444-0.849,15.531,1.527,18.036c5.005,1.189,4.581-2.004,7.635-5.386c2.63-2.912,4.581-3.476,5.685-7.891
	C109.786,68.176,108.09,76.318,103.933,76.693z"/>
<path fill-rule="evenodd" clip-rule="evenodd" fill="#A8AEA4" d="M237.212,91.724c0.085-2.13,0.34-4.353-0.509-5.98l0.085,1.941
	c-8.653,5.542-28.166,11.241-32.153,13.621C213.543,100.836,228.389,94.322,237.212,91.724z"/>
<path fill-rule="evenodd" clip-rule="evenodd" fill="#004E6E" d="M141.262,53.647l3.647,0.25c0.679-2.537,0.764-1.66-0.085-3.789
	C141.771,48.355,140.922,51.048,141.262,53.647z"/>
<path fill-rule="evenodd" clip-rule="evenodd" fill="#004E6E" d="M101.896,53.49c4.072,1.597,6.108-1.973,2.63-4.102
	C102.405,50.109,101.812,51.048,101.896,53.49z"/>
</svg>
